<?xml version="1.0" encoding="UTF-8" standalone="no"?>
<!-- Created with Inkscape (http://www.inkscape.org/) -->

<svg
   xmlns:dc="http://purl.org/dc/elements/1.1/"
   xmlns:cc="http://creativecommons.org/ns#"
   xmlns:rdf="http://www.w3.org/1999/02/22-rdf-syntax-ns#"
   xmlns:svg="http://www.w3.org/2000/svg"
   xmlns="http://www.w3.org/2000/svg"
   xmlns:sodipodi="http://sodipodi.sourceforge.net/DTD/sodipodi-0.dtd"
   xmlns:inkscape="http://www.inkscape.org/namespaces/inkscape"
   width="31.030001mm"
   height="31.9mm"
   viewBox="0 0 31.030001 31.9"
   version="1.1"
   id="svg27"
   inkscape:version="0.92.4 (unknown)"
   sodipodi:docname="logo-dark-small.svg">
  <defs
     id="defs21" />
  <sodipodi:namedview
     id="base"
     pagecolor="#ffffff"
     bordercolor="#666666"
     borderopacity="1.0"
     inkscape:pageopacity="0.0"
     inkscape:pageshadow="2"
     inkscape:zoom="1.0761588"
     inkscape:cx="90.071895"
     inkscape:cy="86.78371"
     inkscape:document-units="mm"
     inkscape:current-layer="layer1"
     showgrid="false"
     inkscape:window-width="891"
     inkscape:window-height="529"
     inkscape:window-x="1664"
     inkscape:window-y="624"
     inkscape:window-maximized="0" />
  <metadata
     id="metadata24">
    <rdf:RDF>
      <cc:Work
         rdf:about="">
        <dc:format>image/svg+xml</dc:format>
        <dc:type
           rdf:resource="http://purl.org/dc/dcmitype/StillImage" />
        <dc:title></dc:title>
      </cc:Work>
    </rdf:RDF>
  </metadata>
  <g
     inkscape:label="Layer 1"
     inkscape:groupmode="layer"
     id="layer1"
     transform="translate(0,-265.1)">
    <path
       inkscape:connector-curvature="0"
       style="fill:#fbbb33;fill-rule:evenodd;stroke:none;stroke-width:0.18054812"
       id="path0"
       d="m 5.5559458,273.72715 c -0.138027,0.0148 -0.351341,0.058 -0.473977,0.0961 -0.1228,0.038 -0.241925,0.0715 -0.265013,0.0744 -0.02289,0.002 -0.0485,0.0158 -0.05691,0.0287 -0.0083,0.013 -0.03984,0.028 -0.06976,0.0335 -0.02998,0.005 -0.07344,0.0236 -0.09637,0.0404 -0.023077,0.017 -0.059565,0.0339 -0.081313,0.0377 -0.021753,0.004 -0.071938,0.0349 -0.1115882,0.069 -0.039647,0.0341 -0.1159462,0.0881 -0.1696508,0.11983 -0.053683,0.032 -0.1189549,0.0816 -0.1450584,0.11065 -0.085491,0.0949 -0.1336758,0.13679 -0.1336758,0.11593 0,-0.0585 -0.523501,0.60849 -0.6128435,0.78112 -0.03712,0.0712 -0.075451,0.13716 -0.084987,0.14612 -0.033637,0.0308 -0.2409209,0.57653 -0.2651838,0.69811 -0.012012,0.0598 -0.077967,0.32421 -0.093188,0.3735 -0.00835,0.0266 -0.019098,2.45243 -0.023776,5.39039 -0.00885,5.50885 -0.010689,5.37968 0.085492,5.89385 0.013216,0.0709 0.1383618,0.42923 0.1897271,0.54301 0.029974,0.0666 0.053683,0.1288 0.052547,0.13854 -0.00376,0.0366 0.2777233,0.49781 0.35803,0.58607 0.046349,0.0509 0.078303,0.10327 0.071276,0.11652 -0.010688,0.0205 0.065244,0.0992 0.3506692,0.36356 0.1107608,0.10248 0.3657323,0.28427 0.5159755,0.36766 0.092018,0.0511 0.1714907,0.10385 0.1766757,0.11748 0.005,0.0135 0.02125,0.0158 0.03598,0.005 0.01473,-0.0106 0.0418,-0.005 0.06039,0.0132 0.276053,0.26577 1.618185,0.24648 2.0981871,-0.0304 0.03143,-0.0179 0.07529,-0.0368 0.0977,-0.0417 0.06026,-0.0132 0.202942,-0.0947 0.242097,-0.13813 0.01891,-0.0209 0.07228,-0.0575 0.11862,-0.0813 0.04635,-0.0239 0.08415,-0.0546 0.08415,-0.068 0,-0.0136 0.01353,-0.0245 0.02997,-0.0245 0.01638,0 0.04635,-0.0183 0.06659,-0.0407 0.02023,-0.0223 0.07143,-0.0697 0.1136,-0.1054 0.07796,-0.0659 0.4626,-0.50347 0.442523,-0.50347 -0.01006,0 0.135852,-0.23439 0.227371,-0.36532 0.02175,-0.0312 0.03161,-0.0567 0.02175,-0.0567 -0.01006,0 3.29e-4,-0.0257 0.02289,-0.0569 0.02244,-0.0311 0.06475,-0.12255 0.09403,-0.20302 0.02947,-0.0803 0.06424,-0.15509 0.07746,-0.166 0.01322,-0.0109 0.02156,-0.0296 0.01859,-0.0416 -0.0044,-0.019 0.0032,-0.0534 0.04332,-0.19835 0.005,-0.0179 0.03832,-0.15666 0.07378,-0.30843 l 0.06475,-0.27608 v -2.5329 c 0,-2.11419 -0.0067,-2.56251 -0.04047,-2.71156 -0.02244,-0.0982 -0.04281,-0.18957 -0.04533,-0.20283 -0.0026,-0.0135 -0.0078,-0.0317 -0.0117,-0.0407 -0.0038,-0.009 -0.0092,-0.027 -0.01201,-0.0405 -0.0032,-0.0135 -0.04514,-0.12508 -0.09419,-0.24803 -0.04888,-0.12294 -0.08901,-0.2301 -0.08901,-0.2377 0,-0.008 -0.01556,-0.0331 -0.03477,-0.0565 -0.01923,-0.0233 -0.05368,-0.0754 -0.07663,-0.1157 -0.02308,-0.0404 -0.06159,-0.0968 -0.08566,-0.12566 -0.02428,-0.0288 -0.0721,-0.0999 -0.106575,-0.15802 -0.03447,-0.058 -0.07997,-0.1056 -0.101054,-0.1056 -0.02125,0 -0.04869,-0.0187 -0.0609,-0.0416 -0.02897,-0.054 -0.306678,-0.28329 -0.342981,-0.28329 -0.01537,0 -0.02795,-0.0109 -0.02795,-0.0245 0,-0.23205 -1.2927721,-0.38091 -1.7148831,-0.19718 -0.287601,0.12509 -0.57152,0.28797 -0.57152,0.32772 0,0.0191 -0.0069,0.0267 -0.01537,0.017 -0.03547,-0.0414 -0.467121,0.45631 -0.588588,0.67862 -0.02764,0.0503 -0.05672,0.0988 -0.06458,0.10774 -0.041167,0.0458 -0.176341,0.43742 -0.2298748,0.66577 -0.057413,0.24549 -0.0614,0.34058 -0.070945,1.72918 l -0.010184,1.46928 h 0.5168108 0.51681 l 0.0094,-1.4044 c 0.008,-1.20663 0.0172,-1.49596 0.04932,-1.54253 0.0032,-0.005 0.0075,-0.0191 0.0097,-0.0324 0.03377,-0.20712 0.428808,-0.755 0.544247,-0.755 0.02947,0 0.05805,-0.0154 0.06341,-0.0343 0.005,-0.019 0.03465,-0.0395 0.06508,-0.0461 0.03029,-0.007 0.0552,-0.0142 0.0552,-0.0169 0,-0.009 0.08148,-0.032 0.223019,-0.0625 0.2330541,-0.0507 0.6588461,0.0669 0.8363631,0.2305 0.168809,0.15547 0.209803,0.19951 0.198257,0.21296 -0.0074,0.009 0.01707,0.0513 0.05451,0.0947 0.23289,0.27122 0.2354,0.30415 0.235065,2.93894 -5.18e-4,2.58785 -0.0065,2.67143 -0.222514,3.08 -0.01403,0.0267 -0.05988,0.11437 -0.101724,0.19485 -0.06976,0.13423 -0.428302,0.57633 -0.428302,0.52819 0,-0.0117 -0.01841,0.008 -0.04098,0.0419 -0.02238,0.0347 -0.04148,0.0485 -0.04217,0.0306 -6.11e-4,-0.0177 -0.01322,-0.0105 -0.02776,0.0163 -0.01454,0.0267 -0.0363,0.0493 -0.04837,0.0503 -0.01201,5.4e-4 -0.06591,0.0335 -0.119619,0.0729 -0.4405191,0.32247 -1.1857041,0.33378 -1.6842711,0.0256 -0.297807,-0.18393 -0.6021386,-0.44209 -0.6021386,-0.51067 0,-0.0169 -0.028267,-0.0661 -0.062731,-0.10912 C 4.2048359,288.02976 4.183924,287.99586 4.0959218,287.8135 4.0495728,287.7174 3.982651,287.52182 3.9471829,287.379 l -0.064243,-0.25971 v -5.16321 c 0,-5.90457 -0.024408,-5.36682 0.2722091,-5.97276 0.1013894,-0.20712 0.6780878,-0.88516 0.5957768,-0.70045 -0.01271,0.0287 -0.0057,0.0257 0.01789,-0.008 0.05002,-0.0707 0.34482,-0.23166 0.564154,-0.30784 0.15928,-0.0553 0.709547,-0.0585 11.5371042,-0.0666 l 11.369802,-0.009 v -0.5999 -0.59991 l -11.216385,0.004 c -6.169081,0.002 -11.3294692,0.0162 -11.4675022,0.0308" />
  </g>
</svg>
