<?xml version="1.0" encoding="UTF-8" standalone="no"?>
<svg
   xmlns:dc="http://purl.org/dc/elements/1.1/"
   xmlns:cc="http://creativecommons.org/ns#"
   xmlns:rdf="http://www.w3.org/1999/02/22-rdf-syntax-ns#"
   xmlns:svg="http://www.w3.org/2000/svg"
   xmlns="http://www.w3.org/2000/svg"
   xmlns:sodipodi="http://sodipodi.sourceforge.net/DTD/sodipodi-0.dtd"
   xmlns:inkscape="http://www.inkscape.org/namespaces/inkscape"
   id="svg"
   version="1.1"
   width="113"
   height="32"
   viewBox="0 0 113 32.000002"
   sodipodi:docname="logo-dark.svg"
   inkscape:version="0.92.4 (unknown)">
  <metadata
     id="metadata10">
    <rdf:RDF>
      <cc:Work
         rdf:about="">
        <dc:format>image/svg+xml</dc:format>
        <dc:type
           rdf:resource="http://purl.org/dc/dcmitype/StillImage" />
      </cc:Work>
    </rdf:RDF>
  </metadata>
  <defs
     id="defs8" />
  <sodipodi:namedview
     pagecolor="#ffffff"
     bordercolor="#666666"
     borderopacity="1"
     objecttolerance="10"
     gridtolerance="10"
     guidetolerance="10"
     inkscape:pageopacity="0"
     inkscape:pageshadow="2"
     inkscape:window-width="1677"
     inkscape:window-height="480"
     id="namedview6"
     showgrid="false"
     inkscape:zoom="0.83454394"
     inkscape:cx="-143.25839"
     inkscape:cy="2.5219061"
     inkscape:window-x="110"
     inkscape:window-y="881"
     inkscape:window-maximized="0"
     inkscape:current-layer="svg" />
  <g
     id="svgg"
     transform="matrix(0.37961884,0,0,0.3772117,-14.741738,-32.2516)">
    <path
       id="path0"
       d="m 95.12,85.67 c -1.63,0.281 -3.004,1.537 -3.454,3.158 -0.093,0.331 -0.165,3.047 -0.165,6.214 l -0.001,5.625 h 3.083 3.084 V 96.25 91.833 h 11.416 11.417 v 4.417 4.417 h 3.083 3.084 l -0.013,-5.792 c -0.009,-3.991 -0.074,-5.957 -0.208,-6.322 -0.402,-1.089 -1.208,-1.993 -2.219,-2.49 l -0.977,-0.48 -13.667,-0.025 C 102.067,85.544 95.558,85.595 95.12,85.67 M 38.833,131.154 V 157.5 h 9.965 c 14.111,0 17.047,-0.6 22.785,-4.655 18.075,-12.773 13.134,-41.502 -8.083,-47.005 -3.417,-0.887 -3.268,-0.877 -14.292,-0.956 l -10.375,-0.075 v 26.345 m 65.505,-25.541 c -0.19,0.428 -0.691,1.609 -1.115,2.625 -0.423,1.015 -1.364,3.27 -2.092,5.012 -0.727,1.742 -1.837,4.404 -2.467,5.917 -2.169,5.21 -3.788,9.089 -4.8,11.5 -0.557,1.329 -1.066,2.566 -1.13,2.75 -0.064,0.183 -0.566,1.383 -1.116,2.666 -0.549,1.284 -1.318,3.121 -1.709,4.084 -1.164,2.868 -3.143,7.626 -3.97,9.54 -0.425,0.984 -0.772,1.834 -0.772,1.888 0,0.054 -0.525,1.318 -1.167,2.81 -0.642,1.492 -1.167,2.798 -1.167,2.904 0,0.139 1.198,0.191 4.394,0.191 h 4.394 l 0.44,-0.979 c 0.241,-0.539 0.439,-1.031 0.439,-1.094 0,-0.063 0.347,-0.916 0.77,-1.896 0.424,-0.98 1.202,-2.831 1.73,-4.114 0.528,-1.284 1.203,-2.915 1.5,-3.625 l 0.541,-1.292 h 12.044 12.044 l 0.459,1.125 c 0.488,1.197 2.403,5.797 3.989,9.583 l 0.959,2.292 h 4.399 c 2.419,0 4.398,-0.057 4.398,-0.126 0,-0.167 -1.224,-3.258 -2.326,-5.874 -1.168,-2.773 -3.176,-7.577 -4.668,-11.167 -0.666,-1.604 -1.759,-4.229 -2.428,-5.833 -0.669,-1.604 -1.494,-3.592 -1.833,-4.417 -0.339,-0.825 -0.749,-1.8 -0.912,-2.166 -0.162,-0.367 -0.454,-1.061 -0.647,-1.542 -0.194,-0.481 -0.511,-1.269 -0.704,-1.75 -0.194,-0.481 -0.485,-1.175 -0.647,-1.542 -1.053,-2.38 -1.501,-3.452 -1.501,-3.587 0,-0.085 -0.225,-0.646 -0.5,-1.246 -0.275,-0.6 -0.5,-1.128 -0.5,-1.173 0,-0.044 -0.148,-0.399 -0.329,-0.787 -0.181,-0.389 -0.774,-1.794 -1.318,-3.123 -0.544,-1.33 -1.489,-3.617 -2.1,-5.084 -0.611,-1.466 -1.152,-2.798 -1.202,-2.958 -0.083,-0.268 -0.449,-0.292 -4.563,-0.292 h -4.473 l -0.344,0.78 m 35.329,25.545 V 157.5 h 4.5 4.5 v -8.741 -8.741 l 8.125,-0.056 8.125,-0.055 1.5,-0.457 c 4.144,-1.263 8.416,-4.377 10.064,-7.338 0.162,-0.291 0.566,-1.016 0.897,-1.612 5.072,-9.123 -0.064,-21.612 -10.173,-24.739 -2.7,-0.836 -2.3,-0.813 -15.247,-0.881 l -12.291,-0.064 v 26.342 m 85.166,0.009 V 157.5 h 4.417 4.417 v -10.917 -10.916 h 10.916 10.917 v 10.916 10.917 h 4.5 4.5 v -26.333 -26.334 h -4.5 -4.5 v 11 11 h -10.917 -10.916 v -11 -11 h -4.417 -4.417 v 26.334 m 44.834,0 V 157.5 h 4.416 4.417 v -26.333 -26.334 h -4.417 -4.416 v 26.334 m 14,-0.002 V 157.5 h 4.416 4.417 l 0.019,-21.792 c 0.011,-11.985 0.057,-21.641 0.103,-21.458 0.046,0.183 1.164,3.596 2.485,7.583 2.231,6.732 3.777,11.411 9.569,28.959 l 2.215,6.708 3.179,-0.001 h 3.18 l 2.02,-6.125 c 1.112,-3.368 3.688,-11.186 5.725,-17.374 2.037,-6.187 4.333,-13.125 5.102,-15.417 l 1.398,-4.166 0.002,21.541 0.003,21.542 h 4.5 4.5 v -26.333 -26.334 l -7.542,0.001 -7.541,10e-4 -3.315,10.041 c -1.824,5.522 -3.742,11.316 -4.263,12.874 -0.521,1.558 -1.577,4.726 -2.346,7.039 -0.768,2.314 -1.439,4.151 -1.49,4.084 -0.051,-0.068 -0.689,-1.923 -1.418,-4.123 -0.728,-2.2 -1.822,-5.5 -2.431,-7.333 -0.608,-1.834 -2.287,-6.934 -3.729,-11.334 -1.443,-4.4 -2.867,-8.712 -3.166,-9.583 l -0.542,-1.583 -7.525,-0.044 -7.525,-0.043 v 26.335 M 57.679,113.834 c 16.731,1.587 22.147,22.88 8.152,32.048 -3.486,2.284 -5.187,2.661 -12.373,2.744 l -5.791,0.067 V 131.18 113.667 h 4.125 c 2.268,0 4.918,0.075 5.887,0.167 M 164,114.072 c 6.549,2.13 8.53,9.839 3.734,14.533 -2.388,2.338 -3.459,2.559 -12.442,2.56 l -6.625,0.002 v -8.764 -8.764 l 7.208,0.068 c 6.351,0.059 7.317,0.103 8.125,0.365 m -54.421,2.72 c 0.783,1.97 4.55,11.009 6.53,15.673 0.674,1.584 1.224,2.916 1.224,2.958 0,0.042 -3.712,0.077 -8.25,0.077 -4.537,0 -8.25,-0.027 -8.25,-0.059 0,-0.033 0.332,-0.818 0.737,-1.744 0.406,-0.927 0.789,-1.857 0.853,-2.066 0.064,-0.21 0.492,-1.244 0.951,-2.298 0.459,-1.054 1.267,-2.966 1.795,-4.25 0.529,-1.283 1.347,-3.27 1.819,-4.416 0.472,-1.146 0.993,-2.384 1.158,-2.75 0.166,-0.367 0.444,-1.023 0.619,-1.458 0.386,-0.961 0.282,-1.003 0.814,0.333 M 91.5,167.167 v 3.166 h 17.583 17.584 V 167.167 164 H 109.083 91.5 v 3.167"
       inkscape:connector-curvature="0"
       style="fill:#fcfcfc;fill-rule:evenodd;stroke:none" />
    <path
       id="path1"
       d="M 200.565,85.666 C 193.052,86.324 187.077,91.435 184.978,99 l -0.392,1.417 -0.047,26.823 c -0.05,29.229 -0.08,28.173 0.883,31.042 4.921,14.659 25.178,16.231 32.329,2.51 1.847,-3.545 1.815,-3.227 1.875,-18.082 0.061,-14.664 0.082,-14.367 -1.212,-17.167 -3.336,-7.22 -13.425,-9.852 -19.565,-5.103 -4.79,3.705 -5.509,5.893 -5.513,16.768 l -0.003,7.292 h 3.084 3.083 v -6.882 c 0,-7.461 0.053,-8.001 0.939,-9.63 2.828,-5.196 10.363,-4.696 12.603,0.836 l 0.375,0.926 0.047,11.944 c 0.053,13.577 0.073,13.312 -1.235,15.973 -4.086,8.305 -15.817,8.419 -20.2,0.196 -1.262,-2.369 -1.193,-0.641 -1.194,-29.892 -0.002,-31.091 -0.207,-28.721 2.781,-32.214 1.241,-1.45 1.714,-1.801 3.829,-2.836 2.406,-1.178 -3.885,-1.082 71.18,-1.085 L 336.5,91.833 V 88.667 85.5 l -67.292,0.024 c -37.01,0.013 -67.9,0.077 -68.643,0.142"
       inkscape:connector-curvature="0"
       style="fill:#fcbc34;fill-rule:evenodd;stroke:none" />
  </g>
</svg>
